<svg width="24" height="24" viewBox="0 0 24 24" fill="none" xmlns="http://www.w3.org/2000/svg">
<path d="M12.1399 2.00093C6.51611 1.92497 1.92497 6.51589 2.00093 12.1394C2.07593 17.5326 6.46755 21.9241 11.8611 21.999C17.4858 22.076 22.076 17.485 21.999 11.8615C21.925 6.46734 17.5334 2.07592 12.1399 2.00093ZM11.963 9.31322C11.9731 9.25554 11.9841 9.19785 11.9971 9.14064C12.1185 8.57923 12.3891 8.06093 12.7802 7.6403C13.3999 6.98027 14.2782 6.61588 15.2537 6.61588C15.6641 6.61419 16.0717 6.68348 16.4584 6.82067C16.9392 6.99184 17.3722 7.27531 17.7214 7.64751C18.235 8.20265 18.5407 8.91839 18.5867 9.67328C18.6 9.85572 18.6 10.0389 18.5867 10.2213C18.5497 10.7383 18.416 11.2438 18.1925 11.7116C18.1681 11.7625 18.1427 11.813 18.1161 11.863C18.0627 11.9625 18.0055 12.0601 17.9439 12.1543C17.8215 12.3424 17.6826 12.5194 17.5291 12.6831C16.8983 13.3561 16.0907 13.7277 15.2546 13.7277C14.9412 13.7275 14.6298 13.6759 14.3331 13.5748C14.2333 13.541 14.1355 13.502 14.0398 13.458C13.6391 13.2711 13.2787 13.0079 12.9788 12.6831C12.3544 12.0059 11.9811 11.1351 11.9211 10.216C11.9125 10.0917 11.9096 9.96861 11.9125 9.84683C11.9162 9.66828 11.9331 9.49025 11.963 9.31418V9.31322ZM4.76474 10.4833C4.78814 10.1403 4.87281 9.80424 5.01473 9.49109C5.05477 9.40387 5.09938 9.31882 5.14838 9.23631C5.24638 9.07089 5.3623 8.91678 5.49404 8.77673C5.68919 8.56855 5.91642 8.39295 6.16708 8.25659C6.29228 8.18817 6.42264 8.12967 6.55697 8.08161C7.07171 7.90158 7.62511 7.86193 8.16026 7.96671C8.72731 8.07638 9.24521 8.36241 9.64 8.78395C10.1085 9.28962 10.3725 9.95123 10.3808 10.6405C10.3832 10.7419 10.3808 10.8438 10.3736 10.9472C10.3443 11.343 10.2467 11.7307 10.0852 12.0932C10.0078 12.2678 9.91567 12.4354 9.8097 12.5942C9.6059 12.9021 9.34943 13.1718 9.05205 13.3907C8.97993 13.4422 8.90494 13.4902 8.82754 13.5383C8.6753 13.629 8.51422 13.7039 8.34679 13.7618C8.09644 13.8493 7.83318 13.8942 7.56798 13.8945C7.52327 13.8945 7.47856 13.8945 7.43433 13.8907C7.34601 13.8858 7.25805 13.8759 7.17088 13.8609C7.08415 13.8458 6.9983 13.826 6.91368 13.8017C6.78658 13.765 6.6625 13.7186 6.54255 13.6628C6.50216 13.6441 6.46274 13.6244 6.42332 13.6037C5.55798 13.1475 4.9056 12.2019 4.77772 11.0982C4.77196 11.0477 4.76715 10.9972 4.76378 10.9462C4.75293 10.7921 4.75325 10.6374 4.76474 10.4833ZM7.35693 19.069C6.07692 18.2254 5.0482 17.052 4.37918 15.6727C4.35734 15.6286 4.35323 15.5778 4.36772 15.5308C4.38221 15.4837 4.41419 15.444 4.45707 15.4199C5.35029 14.9175 6.49111 14.644 7.56894 14.644C8.38621 14.644 9.04484 14.7401 9.62125 14.9266C9.6866 14.9481 9.74498 14.9868 9.79032 15.0385C9.83565 15.0903 9.86627 15.1532 9.87898 15.2208C9.8917 15.2885 9.88605 15.3582 9.86262 15.4229C9.83919 15.4876 9.79883 15.5448 9.74577 15.5886C8.62322 16.502 7.8997 17.6336 7.55981 18.9897C7.55472 19.0105 7.54472 19.0297 7.53065 19.0457C7.51658 19.0618 7.49885 19.0743 7.47896 19.082C7.45907 19.0898 7.4376 19.0927 7.41636 19.0904C7.39512 19.0882 7.37474 19.0808 7.35693 19.069ZM12.0005 20.4607C10.9181 20.4618 9.8457 20.2542 8.84196 19.8492C8.80094 19.8323 8.76704 19.8017 8.74601 19.7626C8.72498 19.7236 8.71812 19.6784 8.72658 19.6348C8.74581 19.5363 8.76696 19.4464 8.78571 19.3714C9.12801 18.0047 9.97604 16.8716 11.2375 16.0938C12.3572 15.404 13.7855 15.0242 15.2527 15.0242C16.7507 15.0242 18.1372 15.3886 19.266 16.0775C19.2947 16.0955 19.3154 16.1239 19.3235 16.1569C19.3317 16.1898 19.3268 16.2246 19.3097 16.2539C18.5653 17.5327 17.4987 18.5941 16.2163 19.3322C14.9338 20.0703 13.4802 20.4594 12.0005 20.4607Z" fill="#848484"/>
</svg>
