<svg width="12" height="14" viewBox="0 0 12 14" fill="none" xmlns="http://www.w3.org/2000/svg">
<path d="M5.76178 2.24126C6.00985 1.99071 6.41467 1.99071 6.66271 2.24126L11.6482 7.27707C11.8053 7.43576 11.799 7.65832 11.5922 7.74259C11.0581 7.96026 9.68103 8.28351 6.21224 8.28351C2.74346 8.28351 1.36638 7.96026 0.832305 7.74259C0.625539 7.65832 0.619242 7.43576 0.77633 7.27707L5.76178 2.24126Z" fill="#D9D9D9"/>
<path d="M5.92156 0.83428C5.90739 0.664254 6.04155 0.518433 6.21216 0.518433C6.38277 0.518433 6.51696 0.664254 6.5028 0.83428L6.38382 2.26215C6.37637 2.35142 6.30173 2.42007 6.21216 2.42007C6.1226 2.42007 6.04799 2.35142 6.04054 2.26215L5.92156 0.83428Z" fill="#D9D9D9"/>
<path d="M6.83269 0.923103C6.90543 0.768775 7.09451 0.709577 7.24227 0.794885C7.39003 0.880189 7.43332 1.07356 7.33605 1.21372L6.51905 2.3908C6.46799 2.46439 6.36904 2.48654 6.29145 2.44175C6.2139 2.39697 6.1836 2.3002 6.22179 2.21917L6.83269 0.923103Z" fill="#D9D9D9"/>
<path d="M5.59183 0.923103C5.51909 0.768775 5.33 0.709577 5.18225 0.794885C5.03449 0.880189 4.9912 1.07356 5.08846 1.21372L5.90547 2.3908C5.95653 2.46439 6.05548 2.48654 6.13307 2.44175C6.21062 2.39697 6.24092 2.3002 6.20273 2.21917L5.59183 0.923103Z" fill="#D9D9D9"/>
<path fill-rule="evenodd" clip-rule="evenodd" d="M2.09192 8.71136C2.09192 8.61463 2.17771 8.54047 2.27359 8.55333C3.15529 8.67152 4.41316 8.75751 6.21214 8.75751C8.01113 8.75751 9.269 8.67152 10.1507 8.55333C10.2466 8.54047 10.3324 8.61463 10.3324 8.71136V12.878C10.3324 13.1594 9.14067 13.3979 7.49138 13.4807C7.31205 13.4897 7.16296 13.3458 7.16296 13.1662V11.6106C7.16296 11.0855 6.73728 10.6598 6.21214 10.6598C5.68701 10.6598 5.26132 11.0855 5.26132 11.6106V13.1662C5.26132 13.3458 5.11223 13.4897 4.93291 13.4807C3.28361 13.3979 2.09192 13.1594 2.09192 12.878V8.71136Z" fill="#D9D9D9"/>
</svg>
